# xmcd
#
# Track frame offsets:
# 150
# 17737
# 52035
# 69947
# 85665
# 102035
# 117767
# 133387
# 150735
# 164905
#
# Disc length: 2410 seconds
#
# Revision: 0
# Processed by: cddbd v1.4PL0 Copyright (c) Steve Scherf et al.
# Submitted via: Audion 2.6.0 (http://www.panic.com/audion/)
#
DISCID=8209680a
DTITLE=Players and Hustlers - Can You Dig It? Vol 1
DYEAR=1900
DGENRE=
TTITLE0=Superfly-Curtis Mayfield
TTITLE1=Sweetback's Theme
TTITLE2=Down and Out in NYC
TTITLE3=It Hurts So Good
TTITLE4=Slick
TTITLE5=Be Thankful For What You Got
TTITLE6=Are You Man Enough
TTITLE7=Across 110th Street
TTITLE8=Make a Resolution
TTITLE9=Birth of Shaft
EXTD=
EXTT0=
EXTT1=
EXTT2=
EXTT3=
EXTT4=
EXTT5=
EXTT6=
EXTT7=
EXTT8=
EXTT9=
PLAYORDER=
